<svg enable-background="new 0 0 512 512" height="512" viewBox="0 0 512 512" width="512" xmlns="http://www.w3.org/2000/svg"><circle cx="135.989" cy="326" fill="#fed2a4" r="40"/><path d="m493.989 366h-318v-41.667c0-21.171 17.162-38.333 38.333-38.333h199.667c44.183 0 80 35.817 80 80z" fill="#ff7480"/><path d="m64 366v-136h-54v272h492v-136z" fill="#ffbe52"/><circle cx="389" cy="123" fill="#93e7f8" r="113"/><path d="m503.444 356.116c-4.938-44.992-43.169-80.116-89.455-80.116h-62.993c-5.522 0-10 4.478-10 10s4.478 10 10 10h62.993c35.203 0 64.421 26.122 69.288 60h-297.288v-31.667c0-15.623 12.71-28.333 28.333-28.333h56.674c5.522 0 10-4.478 10-10s-4.478-10-10-10h-56.674c-15.85 0-29.941 7.67-38.76 19.491-9.152-11.843-23.482-19.491-39.573-19.491-27.57 0-50 22.43-50 50 0 11.247 3.735 21.637 10.027 30h-22.016v-126c0-5.523-4.478-10-10-10h-54c-5.522 0-10 4.477-10 10v272c0 5.522 4.478 10 10 10h492c5.522 0 10-4.478 10-10v-136c0-5.031-3.719-9.182-8.556-9.884zm-397.455-30.116c0-16.542 13.458-30 30-30s30 13.458 30 30-13.458 30-30 30-30-13.458-30-30zm386.011 166h-472v-76h150.168c5.522 0 10-4.478 10-10s-4.478-10-10-10h-150.168v-156h34v126c0 5.522 4.478 10 10 10h111.989 316.011z"/><path d="m303.92 278.93c-1.86 1.86-2.92 4.44-2.92 7.07s1.06 5.21 2.92 7.069c1.87 1.86 4.439 2.931 7.08 2.931 2.63 0 5.21-1.07 7.069-2.931 1.861-1.859 2.931-4.439 2.931-7.069s-1.07-5.21-2.931-7.07c-1.859-1.86-4.439-2.93-7.069-2.93-2.641 0-5.21 1.069-7.08 2.93z"/><path d="m210.17 416c2.63 0 5.2-1.07 7.07-2.931 1.859-1.859 2.93-4.439 2.93-7.069s-1.07-5.21-2.93-7.07-4.44-2.93-7.07-2.93c-2.64 0-5.21 1.069-7.07 2.93-1.87 1.86-2.93 4.44-2.93 7.07s1.06 5.21 2.93 7.069c1.86 1.861 4.44 2.931 7.07 2.931z"/><path d="m172.013 101.468h20.209l-27.28 27.28c-2.859 2.86-3.715 7.161-2.168 10.897 1.548 3.737 5.194 6.173 9.239 6.173h44.351c5.522 0 10-4.477 10-10s-4.478-10-10-10h-20.209l27.28-27.28c2.859-2.86 3.715-7.161 2.168-10.897-1.548-3.737-5.194-6.173-9.239-6.173h-44.351c-5.522 0-10 4.477-10 10s4.477 10 10 10z"/><path d="m140.333 208.321h7.537l-14.608 14.608c-2.859 2.86-3.715 7.161-2.168 10.898 1.548 3.737 5.194 6.173 9.239 6.173h31.68c5.522 0 10-4.477 10-10s-4.478-10-10-10h-7.537l14.608-14.608c2.859-2.86 3.715-7.161 2.168-10.898-1.548-3.737-5.194-6.173-9.239-6.173h-31.68c-5.522 0-10 4.477-10 10s4.478 10 10 10z"/><path d="m389 246c67.822 0 123-55.178 123-123s-55.178-123-123-123-123 55.178-123 123 55.178 123 123 123zm0-226c56.794 0 103 46.206 103 103s-46.206 103-103 103-103-46.206-103-103 46.206-103 103-103z"/><path d="m462.317 133.092h6.955c5.522 0 10-4.477 10-10s-4.478-10-10-10h-6.955c-5.522 0-10 4.477-10 10s4.478 10 10 10z"/><path d="m325.683 122.908c0-5.523-4.478-10-10-10h-6.955c-5.522 0-10 4.477-10 10s4.478 10 10 10h6.955c5.522 0 10-4.477 10-10z"/><path d="m388.908 186.317c-5.522 0-10 4.477-10 10v6.956c0 5.523 4.478 10 10 10s10-4.477 10-10v-6.956c0-5.523-4.477-10-10-10z"/><path d="m358.333 133h30.667c5.518 0 9.993-4.47 10-9.987l.092-73c.007-5.523-4.465-10.006-9.987-10.013-.005 0-.009 0-.013 0-5.517 0-9.993 4.469-10 9.987l-.079 63.013h-20.68c-5.522 0-10 4.477-10 10s4.478 10 10 10z"/></svg>