<svg enable-background="new 0 0 310.56 310.56" viewBox="0 0 310.56 310.56" xmlns="http://www.w3.org/2000/svg"><path d="m236.65 109.927c-6.128 2.271-13.803 4.43-22.844 5.635 1.528 8.948 1.216 22.677-9.728 35.708-1.379 1.642-3.394 2.618-5.539 2.68-.072.002-.147.004-.221.004-2.064 0-4.042-.85-5.464-2.356-9.34-9.882-27.036-26.162-37.572-30.884-10.543 4.717-28.213 20.981-37.535 30.852-1.424 1.507-3.402 2.357-5.468 2.357-.072 0-.145-.001-.219-.003-2.145-.063-4.16-1.038-5.539-2.68-10.956-13.04-11.273-26.771-9.751-35.719-6.002-.803-11.342-2.044-16.088-3.442.71.208 1.383.426 2.122.625-19.312 9.053-48.22 31.265-48.063 83.085.088 29.012 13.567 53.968 38.981 72.172 23.068 16.523 54.488 26.138 89.152 27.408-2.517.089-5.044.149-7.592.149 37.778 0 72.246-9.787 97.057-27.557 25.414-18.204 38.895-43.16 38.983-72.172.17-58.166-36.286-79.043-54.672-85.862z" fill="#ce593f"/><path d="m78.453 111.423c-1.56-.497-3.063-1.006-4.465-1.525 1.403.519 2.901 1.029 4.465 1.525z" fill="#ce593f"/><g fill="#84bd93"><path d="m228.11 93.069c1.592.704 3.194 1.432 4.811 2.209-1.617-.777-3.219-1.504-4.811-2.209z"/><path d="m232.921 95.278c-1.054.413-2.196.825-3.382 1.232 1.185-.407 2.328-.818 3.382-1.232z"/><path d="m222.736 90.8c1.489.598 2.993 1.227 4.51 1.887-1.517-.66-3.02-1.289-4.51-1.887z"/><path d="m217.319 88.726c1.486.538 2.997 1.118 4.518 1.718-1.521-.6-3.032-1.179-4.518-1.718z"/><path d="m203.749 101.385c8.226-.406 34.24-5.533 40.151-7.211-25.874-8.948-48.642-15.557-48.898-15.546-2.056.01-3.966-.744-5.403-2.155-1.436-1.412-2.254-3.342-2.256-5.357 0 0-.005-.951-.013-2.468-1.477-.057-2.304-.05-2.355-.047-2.056.01-19.765 9.788-21.203 8.378-1.436-1.412-2.255-3.342-2.256-5.357 0 0-.112-22.664-.137-25.023-.067-6.412-.308-11.473 3.639-15.528 2.143-2.2 4.82-3.379 8.326-4.001l-1.386-2.013h-2.141c-15.236 0-14.081 11.465-14.14 11.842l.018 44.728c.002 2.022-.813 3.962-2.258 5.377-1.444 1.416-3.402 2.176-5.419 2.147-.283-.008-20.291-.224-49.609 11.403 2.669.37 5.472.65 8.418.797 2.505.125 4.783 1.492 6.074 3.643s1.422 4.804.352 7.073c-.217.484-4.792 10.907.286 22.359 9.567-9.348 26.971-25.057 39.527-28.938 1.504-.466 3.046-.433 4.444.003l.002-.002c12.56 3.89 29.975 19.613 39.547 28.967 5.161-11.647.321-22.222.26-22.35-1.071-2.27-.938-4.925.353-7.077 1.29-2.153 3.57-3.52 6.077-3.644z"/><path d="m91.095 99.239c-.394-.087-.793-.171-1.178-.261.386.09.784.174 1.178.261z"/><path d="m86.861 98.213c-.208-.056-.402-.116-.608-.173.206.057.4.117.608.173z"/><path d="m83.858 97.341c-.325-.1-.641-.202-.958-.303.318.102.632.203.958.303z"/><path d="m80.965 96.394c-.271-.094-.546-.187-.81-.281.265.095.539.188.81.281z"/><path d="m98.308 100.542c-.37-.052-.724-.114-1.089-.169.365.055.719.117 1.089.169z"/><path d="m212.83 87.177c1.415.469 2.846.958 4.3 1.483-1.454-.525-2.884-1.014-4.3-1.483z"/><path d="m94.671 99.955c-.459-.082-.911-.169-1.361-.257.45.088.901.174 1.361.257z"/><path d="m198.99 83.232c1.207.289 2.435.595 3.692.926-1.258-.331-2.486-.637-3.692-.926z"/><path d="m175.322 79.406c.662.051 1.371.111 2.128.182-.759-.072-1.464-.132-2.128-.182z"/><path d="m177.79 79.621c.74.072 1.52.153 2.343.248-.824-.095-1.603-.176-2.343-.248z"/><path d="m175.004 79.382c-.663-.049-1.284-.091-1.841-.122.555.031 1.18.073 1.841.122z"/><path d="m171.542 79.182c.47.018 1.006.043 1.606.077-.601-.034-1.135-.059-1.606-.077z"/><path d="m180.366 79.894c.845.098 1.745.213 2.67.338-.927-.125-1.824-.24-2.67-.338z"/><path d="m225.578 97.758c1.074-.313 2.106-.632 3.096-.961-.99.327-2.023.648-3.096.961z"/><path d="m187.127 80.843c.974.158 1.977.33 3.013.519-1.037-.189-2.038-.361-3.013-.519z"/><path d="m202.995 84.239c1.311.348 2.656.728 4.016 1.125-1.36-.397-2.704-.777-4.016-1.125z"/><path d="m194.69 82.26c1.154.245 2.337.507 3.548.792-1.212-.284-2.393-.547-3.548-.792z"/><path d="m190.501 81.426c1.093.202 2.229.428 3.385.666-1.157-.238-2.292-.464-3.385-.666z"/><path d="m183.644 80.315c.929.129 1.894.272 2.896.431-1.003-.159-1.966-.301-2.896-.431z"/><path d="m207.9 85.625c1.345.401 2.711.825 4.098 1.276-1.387-.451-2.753-.875-4.098-1.276z"/></g><path d="m253.918 101.192c1.81-1.5 2.834-3.76 2.724-6.128-.117-2.536-1.506-4.842-3.692-6.131-32.363-19.08-62.663-23.529-76.4-24.547 0 0-.035-21.369 0-22.576 2.742-.393 8.046-.393 10.645-.393 2.797 0 5.362-1.551 6.661-4.027 1.299-2.477 1.116-5.468-.472-7.769l-18.22-26.375c-1.404-2.033-3.717-3.246-6.189-3.246h-9.187c-13.698 0-25.024 10.7-25.78 24.21 0 0-.043 1.011-.043 1.506l.016 38.655c-13.745 1.011-44.036 5.442-76.369 24.491-2.188 1.289-3.576 3.594-3.696 6.129-.11 2.392.932 4.674 2.777 6.173-22.539 11.788-52.665 38.121-52.493 94.67.102 33.562 16.176 63.521 45.264 84.355 27.343 19.585 64.923 30.371 105.815 30.371s78.472-10.786 105.815-30.371c29.086-20.834 45.162-50.791 45.266-84.355.168-56.5-29.907-82.84-52.442-94.642zm-1.582 166.769c-24.811 17.771-59.279 27.557-97.057 27.557s-72.246-9.787-97.057-27.557c-25.414-18.203-38.892-43.16-38.981-72.172-.176-58.254 36.387-79.106 54.747-85.891 6.12 2.265 13.772 4.418 22.779 5.623-1.522 8.947-1.204 22.679 9.752 35.719 1.379 1.642 3.394 2.618 5.539 2.68.074.002.147.003.219.003 2.066 0 4.044-.85 5.468-2.357 9.323-9.871 26.992-26.134 37.535-30.852 10.537 4.722 28.232 21.002 37.572 30.884 1.422 1.506 3.4 2.356 5.464 2.356.075 0 .149-.002.221-.004 2.145-.063 4.16-1.038 5.539-2.68 10.944-13.031 11.256-26.759 9.728-35.708 9.04-1.204 16.716-3.364 22.844-5.635 18.386 6.818 54.843 27.695 54.668 85.862-.086 29.012-13.566 53.968-38.98 72.172zm-110.99-188.837c2.017.028 3.976-.731 5.419-2.147 1.445-1.415 2.26-3.353 2.258-5.375l-.018-44.725c.059-.377-.237-11.835 10.782-11.835h5.243l8.312 12.034c-3.506.622-6.183 1.794-8.326 3.994-3.946 4.055-3.706 9.116-3.639 15.528.026 2.359.137 25.023.137 25.023.002 2.014.821 3.945 2.256 5.357 1.438 1.411 3.347 2.165 5.404 2.155.312-.014 29.57-.276 63.746 16.145-6.97 2.732-16.851 5.499-29.172 6.107-2.507.124-4.787 1.49-6.079 3.643-1.291 2.152-1.424 4.807-.353 7.077.061.127 4.9 10.702-.26 22.35-9.571-9.354-26.987-25.077-39.547-28.967l-.002.002c-1.398-.436-2.94-.469-4.444-.003-12.556 3.881-29.96 19.59-39.527 28.938-5.078-11.452-.503-21.875-.286-22.358 1.069-2.269.938-4.922-.352-7.073-1.291-2.151-3.569-3.517-6.074-3.643-12.219-.612-22.128-3.407-29.139-6.157 34.126-16.363 63.344-16.079 63.661-16.07z" fill="#3f2d20"/></svg>