<?xml version="1.0" standalone="no"?>
<!DOCTYPE svg PUBLIC "-//W3C//DTD SVG 20010904//EN"
 "http://www.w3.org/TR/2001/REC-SVG-20010904/DTD/svg10.dtd">
<svg version="1.0" xmlns="http://www.w3.org/2000/svg"
 width="700.000000pt" height="700.000000pt" viewBox="0 0 700.000000 700.000000"
 preserveAspectRatio="xMidYMid meet">
<metadata>
Created by potrace 1.11, written by Peter Selinger 2001-2013
</metadata>
<g transform="translate(0.000000,700.000000) scale(0.100000,-0.100000)"
fill="#000000" stroke="none">
<path d="M3473 6985 c-163 -35 -321 -161 -393 -311 -57 -119 -60 -145 -60
-656 0 -293 -4 -468 -10 -468 -5 0 -78 -9 -162 -20 -447 -57 -867 -185 -1283
-391 -309 -153 -350 -188 -343 -294 3 -44 10 -70 27 -94 16 -23 20 -35 12 -40
-207 -117 -354 -224 -494 -360 -318 -308 -519 -687 -616 -1161 -56 -272 -69
-670 -32 -925 119 -807 641 -1462 1485 -1865 936 -447 2217 -525 3276 -200
1129 347 1859 1101 2001 2064 37 256 25 630 -31 917 -123 641 -481 1160 -1018
1476 -53 31 -98 58 -100 59 -2 1 8 19 23 39 19 29 25 50 25 94 0 104 -25 127
-300 265 -472 239 -913 371 -1442 431 l-58 6 0 253 0 253 77 7 c42 3 105 6
140 6 80 0 126 21 160 71 32 49 39 104 20 151 -17 40 -403 605 -446 652 -45
49 -75 56 -243 55 -87 0 -179 -6 -215 -14z m316 -425 c37 -52 77 -112 89 -132
l23 -36 -55 -16 c-73 -21 -132 -69 -170 -136 l-31 -55 0 -431 0 -431 28 -36
c44 -59 75 -69 227 -78 408 -24 876 -143 1271 -322 l73 -34 -94 -31 c-191 -62
-310 -87 -461 -98 -120 -8 -161 -18 -200 -51 -65 -55 -73 -117 -32 -232 24
-68 27 -90 28 -206 0 -100 -4 -144 -19 -192 -11 -35 -22 -63 -25 -63 -3 0 -51
42 -106 93 -302 278 -556 463 -734 532 -93 37 -140 32 -262 -28 -174 -84 -409
-260 -654 -486 -66 -61 -123 -111 -126 -111 -4 0 -15 30 -25 68 -14 49 -19
100 -19 192 1 109 4 135 28 203 15 42 27 91 27 108 0 68 -53 136 -122 157 -18
6 -73 13 -123 16 -49 4 -130 13 -180 22 -165 28 -397 98 -378 113 16 14 169
79 305 130 336 126 711 206 1053 226 129 8 166 22 203 78 l27 41 5 575 5 576
24 48 c25 52 72 95 123 114 19 7 72 11 122 10 l89 -2 66 -95z m-2034 -2066
c44 -14 86 -28 94 -30 8 -3 -37 -33 -99 -68 -543 -302 -867 -808 -945 -1474
-20 -169 -19 -474 1 -611 61 -420 244 -780 552 -1089 489 -491 1221 -789 2132
-868 l155 -13 -245 4 c-653 11 -1205 139 -1719 396 -660 330 -1091 854 -1210
1471 -47 246 -47 555 0 836 91 544 361 976 788 1263 126 85 363 207 406 209 5
0 46 -12 90 -26z"/>
</g>
</svg>
